<?xml version="1.0" encoding="utf-8"?>
<!-- Generator: Adobe Illustrator 16.0.0, SVG Export Plug-In . SVG Version: 6.00 Build 0)  -->
<!DOCTYPE svg PUBLIC "-//W3C//DTD SVG 1.1//EN" "http://www.w3.org/Graphics/SVG/1.1/DTD/svg11.dtd">
<svg version="1.1" id="Layer_1" xmlns="http://www.w3.org/2000/svg" xmlns:xlink="http://www.w3.org/1999/xlink" x="0px" y="0px"
	 width="256px" height="256px" viewBox="0 0 256 256" enable-background="new 0 0 256 256" xml:space="preserve">
<rect fill="#2D96C8" width="256" height="256"/>
<path fill="#006FA6" d="M0,41.5v134.781c0,0,28.594-18.932,52.5-2.531c21.5,14.75,27.396,48.156,10,64.75
	C30,269.5,0,242.25,0,242.25V256h114.544l89.686-89.686c0,0-36.729,24.353-81.229,17.353S44.5,157,34,96S0,41.5,0,41.5z"/>
<polygon opacity="0.8" fill="#006FA6" points="94.665,69.517 43.008,121.174 59,150.833 112.673,97.16 "/>
<polygon opacity="0.8" fill="#006FA6" points="133.463,55.399 49.097,139.764 77.416,171.083 151.34,97.16 "/>
<polygon opacity="0.8" fill="#006FA6" points="114.064,38.156 38.693,113.526 65.394,163.561 132.063,96.892 "/>
<g>
	<rect x="94.665" y="69.517" fill-rule="evenodd" clip-rule="evenodd" fill="#9AD83F" width="17.998" height="27.375"/>
	<rect x="114.064" y="38.156" fill-rule="evenodd" clip-rule="evenodd" fill="#ED4C4F" width="17.998" height="58.736"/>
	<rect x="133.463" y="55.399" fill-rule="evenodd" clip-rule="evenodd" fill="#FFE055" width="17.997" height="41.493"/>
</g>
<g>
	<path fill="#FFFFFF" d="M68.953,118.905H65.38v-5.201c0.498-0.288,0.985-0.533,1.462-0.736c0.478-0.203,0.933-0.432,1.364-0.687
		c0.432-0.255,0.84-0.572,1.227-0.952c0.386-0.379,0.736-0.89,1.05-1.531h5.221v35.349h-6.752V118.905z"/>
	<path fill="#FFFFFF" d="M79.552,120.24c0-1.531,0.183-2.97,0.549-4.318c0.366-1.348,0.936-2.522,1.708-3.523
		s1.757-1.792,2.954-2.375c1.197-0.582,2.633-0.874,4.308-0.874c1.636,0,3.052,0.285,4.25,0.854
		c1.197,0.569,2.185,1.354,2.964,2.355c0.778,1.001,1.354,2.176,1.727,3.523s0.56,2.8,0.56,4.357v14.544
		c0,1.491-0.196,2.905-0.589,4.239c-0.393,1.335-0.981,2.51-1.767,3.523s-1.773,1.815-2.964,2.404s-2.584,0.883-4.181,0.883
		c-1.609,0-3.013-0.291-4.21-0.873s-2.188-1.374-2.974-2.375s-1.371-2.172-1.757-3.514c-0.386-1.341-0.579-2.771-0.579-4.288V120.24
		z M91.721,120.24c0-3.389-0.883-5.084-2.65-5.084c-0.419,0-0.775,0.085-1.069,0.255c-0.294,0.17-0.54,0.393-0.736,0.667
		c-0.196,0.274-0.35,0.589-0.461,0.942c-0.111,0.354-0.193,0.72-0.245,1.099c-0.052,0.38-0.085,0.753-0.098,1.119
		c-0.013,0.366-0.02,0.7-0.02,1.001v14.544c0,0.419,0.026,0.919,0.079,1.501c0.052,0.583,0.17,1.139,0.353,1.669
		s0.448,0.979,0.795,1.345s0.814,0.549,1.403,0.549c0.563,0,1.021-0.173,1.374-0.52c0.354-0.347,0.622-0.775,0.805-1.286
		c0.183-0.51,0.308-1.06,0.373-1.648s0.098-1.125,0.098-1.609V120.24z"/>
	<path fill="#FFFFFF" d="M102.536,146.679c0.065,0,0.164,0,0.294,0c0.354,0,0.589-0.004,0.707-0.01
		c0.118-0.007,0.236-0.066,0.354-0.177c0.118-0.111,0.187-0.259,0.206-0.441c0.02-0.184,0.029-0.479,0.029-0.884h-2.159v-6.241
		h6.339c0,0.393,0,0.968,0,1.727c0.013,0.969,0.02,1.682,0.02,2.14c-0.026,2.617-0.294,4.436-0.805,5.457
		c-0.72,1.438-2.12,2.002-4.2,1.688L102.536,146.679z"/>
	<path fill="#FFFFFF" d="M110.701,139.083l8.597-12.307l1.236-1.845c0.301-0.445,0.586-0.923,0.854-1.433
		c0.268-0.51,0.5-1.027,0.696-1.55s0.35-1.047,0.461-1.57s0.167-1.027,0.167-1.511c0-0.379-0.049-0.792-0.146-1.237
		c-0.099-0.444-0.249-0.854-0.452-1.227s-0.468-0.684-0.795-0.932s-0.726-0.373-1.197-0.373c-0.458,0-0.837,0.115-1.138,0.343
		c-0.301,0.229-0.549,0.534-0.746,0.913c-0.196,0.38-0.347,0.812-0.452,1.296c-0.105,0.484-0.177,0.975-0.216,1.472
		c-0.039,0.498-0.063,0.985-0.069,1.462c-0.007,0.478-0.01,0.9-0.01,1.266v0.471h-6.771v-2.218c0-1.57,0.167-3.025,0.5-4.367
		c0.333-1.341,0.874-2.502,1.619-3.484c0.746-0.981,1.718-1.747,2.915-2.296c1.197-0.549,2.653-0.824,4.367-0.824
		c1.492,0,2.82,0.229,3.984,0.687c1.165,0.458,2.146,1.109,2.944,1.953c0.798,0.844,1.406,1.865,1.825,3.062
		c0.419,1.197,0.628,2.542,0.628,4.034c0,1.204-0.15,2.385-0.451,3.542c-0.301,1.158-0.766,2.353-1.394,3.582
		c-0.628,1.23-1.43,2.522-2.404,3.876c-0.975,1.354-2.137,2.836-3.483,4.446c-0.799,0.955-1.466,1.77-2.002,2.443
		c-0.537,0.674-0.956,1.207-1.257,1.6h10.992v6.791h-18.803V139.083z"/>
	<path fill="#FFFFFF" d="M139.672,133.94c-0.014,0.17-0.021,0.327-0.021,0.471c0,0.145,0,0.281,0,0.412
		c0,0.576,0.017,1.171,0.05,1.786c0.032,0.615,0.124,1.178,0.274,1.688c0.15,0.51,0.373,0.929,0.667,1.256
		c0.295,0.327,0.704,0.49,1.228,0.49c1.622,0,2.604-1.249,2.943-3.749c0.053-0.34,0.085-0.824,0.099-1.452
		c0.013-0.628,0.02-1.413,0.02-2.355c0-0.432-0.017-0.942-0.049-1.531c-0.033-0.589-0.135-1.151-0.305-1.688
		s-0.435-0.991-0.795-1.364c-0.359-0.373-0.86-0.56-1.501-0.56c-0.314,0-0.615,0.079-0.903,0.235
		c-0.288,0.157-0.553,0.363-0.795,0.619c-0.242,0.255-0.461,0.546-0.657,0.873c-0.196,0.327-0.366,0.667-0.511,1.021h-5.79v-20.294
		h16.821v6.712h-10.462l-0.255,6.379c1.282-0.772,2.513-1.158,3.689-1.158c1.1,0,2.064,0.144,2.896,0.432
		c0.831,0.288,1.551,0.684,2.159,1.188c0.608,0.504,1.112,1.099,1.511,1.786c0.399,0.687,0.72,1.433,0.962,2.237
		s0.412,1.649,0.511,2.532c0.098,0.884,0.147,1.776,0.147,2.68c0,1.008-0.043,2.031-0.128,3.071
		c-0.085,1.041-0.252,2.052-0.501,3.033c-0.248,0.98-0.589,1.903-1.021,2.767c-0.432,0.864-0.998,1.623-1.697,2.277
		c-0.7,0.654-1.548,1.168-2.542,1.541s-2.172,0.559-3.533,0.559c-1.858,0-3.389-0.313-4.593-0.941s-2.152-1.482-2.846-2.562
		c-0.694-1.08-1.178-2.339-1.452-3.778c-0.275-1.439-0.413-2.977-0.413-4.612H139.672z"/>
	<path fill="#FFFFFF" d="M154.785,120.24c0-1.531,0.183-2.97,0.55-4.318c0.366-1.348,0.935-2.522,1.707-3.523
		s1.757-1.792,2.954-2.375c1.197-0.582,2.633-0.874,4.309-0.874c1.635,0,3.052,0.285,4.249,0.854
		c1.197,0.569,2.186,1.354,2.964,2.355s1.354,2.176,1.728,3.523c0.372,1.348,0.559,2.8,0.559,4.357v14.544
		c0,1.491-0.196,2.905-0.589,4.239c-0.393,1.335-0.98,2.51-1.766,3.523s-1.773,1.815-2.964,2.404
		c-1.191,0.589-2.585,0.883-4.181,0.883c-1.609,0-3.014-0.291-4.211-0.873s-2.188-1.374-2.973-2.375
		c-0.785-1.001-1.371-2.172-1.757-3.514c-0.387-1.341-0.579-2.771-0.579-4.288V120.24z M166.954,120.24
		c0-3.389-0.883-5.084-2.649-5.084c-0.419,0-0.775,0.085-1.07,0.255c-0.294,0.17-0.539,0.393-0.735,0.667
		c-0.196,0.274-0.351,0.589-0.462,0.942c-0.111,0.354-0.193,0.72-0.245,1.099c-0.053,0.38-0.085,0.753-0.098,1.119
		c-0.014,0.366-0.021,0.7-0.021,1.001v14.544c0,0.419,0.026,0.919,0.079,1.501c0.052,0.583,0.17,1.139,0.354,1.669
		c0.183,0.53,0.447,0.979,0.795,1.345c0.346,0.366,0.814,0.549,1.403,0.549c0.563,0,1.021-0.173,1.374-0.52
		c0.353-0.347,0.621-0.775,0.805-1.286c0.183-0.51,0.307-1.06,0.372-1.648s0.099-1.125,0.099-1.609V120.24z"/>
	<path fill="#FFFFFF" d="M177.494,138.926h6.379v6.222h-6.379V138.926z"/>
	<path fill="#FFFFFF" d="M187.74,138.926h6.379v6.222h-6.379V138.926z"/>
</g>
<path fill="#FFFFFF" d="M29.51,165.333c-11.261,0-21.574,4.128-29.51,10.948v6.283c7.422-7.796,17.896-12.658,29.51-12.658
	c10.61,0,20.271,4.058,27.522,10.702c-0.175-0.012-0.347-0.033-0.527-0.033c-4.003,0-6.845,3.487-6.845,7.233
	c0,3.358,1.938,6.2,4.004,9.56c1.55,2.714,3.36,6.201,3.36,11.24c0,3.489-1.341,7.536-3.101,13.177l-4.066,13.583l-14.73-43.813
	c2.453-0.13,4.665-0.389,4.665-0.389c2.196-0.259,1.938-3.487-0.259-3.358c0,0-6.602,0.518-10.864,0.518
	c-4.005,0-10.734-0.518-10.734-0.518c-2.199-0.129-2.457,3.229-0.259,3.358c0,0,2.079,0.259,4.275,0.389l6.35,17.397l-8.92,26.751
	L4.538,191.556c2.455-0.13,4.664-0.389,4.664-0.389c2.195-0.259,1.936-3.487-0.261-3.358c0,0-4.867,0.382-8.941,0.489v26.927
	l11.724,32.121c-4.413-2.144-8.377-5.064-11.724-8.577v6.281C7.936,251.871,18.25,256,29.51,256
	c24.996,0,45.333-20.339,45.333-45.336C74.843,185.668,54.506,165.333,29.51,165.333z M29.51,251.426
	c-4.001,0-7.862-0.587-11.516-1.661l12.231-35.535l12.527,34.323c0.083,0.202,0.184,0.388,0.292,0.562
	C38.809,250.605,34.256,251.426,29.51,251.426z M50.001,245.894l12.449-35.992c2.325-5.815,3.1-10.464,3.1-14.6
	c0-1.499-0.1-2.893-0.274-4.19c3.182,5.804,4.992,12.467,4.992,19.553C70.267,225.701,62.119,238.828,50.001,245.894z"/>
<path fill-rule="evenodd" clip-rule="evenodd" fill="#FFFFFF" d="M249.375,33.035c-13.253,2.913-24.858,1.164-36.682-4.445
	c-38.096-18.073-78.32-21.332-119.625-14.837C80.859,15.674,68.646,18.78,56.393,19C37.599,19.335,18.8,19.405,0,19.388v34.455
	c5.163-0.08,10.447,2.771,13.812,8.467c2.803,4.745,4.698,10.165,6.217,15.502c4.268,14.985,7.461,30.303,12.286,45.097
	c9.601,29.437,28.219,50.794,58.155,61.079c17.63,6.058,35.909,7.778,54.406,7.615c33.113-0.294,57.425-14.733,72.002-44.902
	c8.776-18.162,13.794-37.488,17.929-57.06c1.774-8.395,3.462-16.089,14.568-14.573C252.481,75.168,256.006,33.369,249.375,33.035z
	 M204.368,142.165c-13.128,25.013-34.11,37.666-62.483,36.393c-12.104-0.546-24.452-1.698-36.128-4.729
	c-35.901-9.318-56.592-33.63-64.244-69.331c-2.04-9.513-3.091-19.332-3.572-29.062c-0.706-14.301,6.159-24.821,18.256-32.15
	c14.562-8.824,30.753-12.059,47.359-13.742c6.76-0.684,13.572-0.847,18.25-1.123c22.762,0.678,43.02,3.313,63.046,8.852
	c20.711,5.731,31.198,18.438,32.181,39.779C218.082,99.841,215.043,121.831,204.368,142.165z"/>
</svg>
